# xmcd CD database file
#
# Track frame offsets:
#	150
#	19594
#	37283
#	60830
#	77868
#	93983
#	107949
#	126353
#	143497
#	162682
#	184561
#
# Disc length: 2718 seconds
#
# Revision: 0
# Processed by: cddbd v1.4PL0 Copyright (c) Steve Scherf et al.
# Submitted via: CDex 1.50
#
DISCID=900a9c0b
DTITLE=Vince Gill - When Love Finds You
DYEAR=1994
DGENRE=Country
TTITLE0=Whenever You Come Around
TTITLE1=You Better Think Twice
TTITLE2=Real Lady's Man
TTITLE3=What the Cowgirls Do
TTITLE4=When Love Finds You
TTITLE5=If There's Anything I Can Do
TTITLE6=South Side of Dixie
TTITLE7=Maybe Tonight
TTITLE8=Which Bridge to Cross (Which Bridge to Burn)
TTITLE9=If I Had My Way
TTITLE10=Go Rest High on That Mountain
EXTD=YEAR: 1994
EXTT0=
EXTT1=
EXTT2=
EXTT3=
EXTT4=
EXTT5=
EXTT6=
EXTT7=
EXTT8=
EXTT9=
EXTT10=
PLAYORDER=
